<svg xmlns="http://www.w3.org/2000/svg" xmlns:xlink="http://www.w3.org/1999/xlink" width="300" zoomAndPan="magnify" viewBox="0 0 224.87999 225" height="300" preserveAspectRatio="xMidYMid meet" version="1.0"><defs><clipPath id="dc53ec33d0"><path d="M 49 51 L 175 51 L 175 175 L 49 175 Z M 49 51 " clip-rule="nonzero"/></clipPath><clipPath id="f4ebc0c508"><path d="M 193.386719 150.003906 L 70.3125 190.871094 L 31.808594 74.914062 L 154.882812 34.046875 Z M 193.386719 150.003906 " clip-rule="nonzero"/></clipPath><clipPath id="157543d48c"><path d="M 70.003906 190.976562 L 193.078125 150.109375 L 154.570312 34.148438 L 31.5 75.015625 Z M 70.003906 190.976562 " clip-rule="nonzero"/></clipPath><clipPath id="346845cb02"><path d="M 54.03125 49.390625 L 178 49.390625 L 178 125 L 54.03125 125 Z M 54.03125 49.390625 " clip-rule="nonzero"/></clipPath></defs><g clip-path="url(#dc53ec33d0)"><g clip-path="url(#f4ebc0c508)"><g clip-path="url(#157543d48c)"><path fill="#337354" d="M 174.828125 95.304688 C 173.652344 92.191406 172.28125 89.175781 170.707031 86.246094 C 169.105469 83.339844 167.308594 80.5625 165.316406 77.910156 C 163.320312 75.28125 161.144531 72.808594 158.789062 70.492188 C 156.4375 68.203125 153.941406 66.089844 151.289062 64.152344 C 148.023438 61.765625 144.566406 59.703125 140.921875 57.957031 C 137.273438 56.214844 133.5 54.820312 129.59375 53.777344 C 125.691406 52.730469 121.726562 52.054688 117.699219 51.746094 C 113.667969 51.4375 109.648438 51.503906 105.632812 51.941406 C 102.472656 52.300781 99.355469 52.878906 96.277344 53.675781 C 93.230469 54.503906 90.253906 55.527344 87.34375 56.75 C 84.460938 58 81.675781 59.441406 78.988281 61.078125 C 76.34375 62.707031 73.832031 64.519531 71.453125 66.519531 C 69.074219 68.519531 66.855469 70.6875 64.800781 73.015625 C 62.742188 75.34375 60.863281 77.8125 59.171875 80.417969 C 57.476562 83.027344 55.984375 85.746094 54.691406 88.574219 C 53.425781 91.339844 52.367188 94.1875 51.523438 97.113281 C 50.675781 100.035156 50.050781 103.007812 49.644531 106.027344 C 49.234375 109.042969 49.050781 112.074219 49.089844 115.121094 C 49.132812 118.167969 49.394531 121.191406 49.878906 124.199219 C 50.84375 130.121094 52.640625 135.773438 55.273438 141.160156 C 57.90625 146.550781 61.261719 151.441406 65.339844 155.835938 C 69.328125 160.128906 73.855469 163.746094 78.914062 166.695312 C 83.972656 169.644531 89.347656 171.796875 95.039062 173.152344 C 100.617188 174.476562 106.265625 174.953125 111.980469 174.589844 C 117.699219 174.226562 123.238281 173.035156 128.601562 171.019531 C 123.230469 172.582031 117.75 173.324219 112.15625 173.25 C 106.5625 173.179688 101.101562 172.289062 95.769531 170.585938 C 90.5625 168.921875 85.707031 166.539062 81.203125 163.4375 C 76.703125 160.332031 72.742188 156.644531 69.328125 152.367188 C 66.007812 148.183594 63.359375 143.613281 61.390625 138.648438 C 59.417969 133.683594 58.207031 128.539062 57.753906 123.214844 C 57.320312 118.023438 57.648438 112.878906 58.742188 107.785156 C 59.835938 102.691406 61.644531 97.867188 64.167969 93.3125 C 66.625 88.875 69.671875 84.894531 73.308594 81.367188 C 76.945312 77.839844 81.015625 74.917969 85.519531 72.601562 C 87.734375 71.488281 90.011719 70.527344 92.355469 69.722656 C 94.699219 68.949219 97.085938 68.335938 99.507812 67.882812 C 101.921875 67.460938 104.351562 67.210938 106.796875 67.125 C 109.222656 67.058594 111.640625 67.167969 114.050781 67.449219 C 118.832031 68.015625 123.425781 69.265625 127.835938 71.195312 C 132.25 73.128906 136.285156 75.660156 139.949219 78.789062 C 143.507812 81.835938 146.546875 85.332031 149.070312 89.277344 C 151.589844 93.226562 153.488281 97.457031 154.753906 101.96875 Z M 174.828125 95.304688 " fill-opacity="1" fill-rule="nonzero"/></g></g></g><g clip-path="url(#346845cb02)"><path fill="#03bc78" d="M 177.875 111.429688 C 177.320312 102.523438 175.09375 94.0625 171.195312 86.042969 C 167.386719 78.214844 162.226562 71.417969 155.71875 65.644531 C 149.355469 60.027344 142.160156 55.839844 134.140625 53.085938 C 126.308594 50.410156 118.261719 49.335938 110.003906 49.867188 C 101.960938 50.402344 94.320312 52.457031 87.085938 56.023438 C 80.050781 59.515625 73.949219 64.222656 68.789062 70.148438 C 63.789062 75.925781 60.082031 82.445312 57.667969 89.699219 C 55.320312 96.761719 54.410156 104.003906 54.941406 111.429688 C 55.46875 104.214844 57.359375 97.378906 60.605469 90.914062 C 63.769531 84.667969 68.007812 79.265625 73.320312 74.707031 C 78.488281 70.28125 84.304688 67.011719 90.773438 64.902344 C 97.046875 62.875 103.46875 62.125 110.039062 62.65625 C 116.398438 63.183594 122.414062 64.914062 128.082031 67.84375 C 133.5625 70.691406 138.289062 74.480469 142.265625 79.210938 C 146.097656 83.789062 148.898438 88.929688 150.667969 94.632812 C 152.371094 100.113281 152.964844 105.710938 152.445312 111.429688 C 152.433594 112.265625 152.5 113.09375 152.644531 113.917969 C 152.792969 114.742188 153.019531 115.542969 153.328125 116.320312 C 153.632812 117.097656 154.011719 117.839844 154.460938 118.542969 C 154.914062 119.246094 155.429688 119.898438 156.007812 120.5 C 156.585938 121.101562 157.21875 121.644531 157.90625 122.121094 C 158.589844 122.597656 159.316406 123.003906 160.082031 123.335938 C 160.847656 123.671875 161.636719 123.925781 162.453125 124.105469 C 163.269531 124.28125 164.09375 124.378906 164.929688 124.394531 C 165.765625 124.410156 166.59375 124.34375 167.414062 124.195312 C 168.238281 124.046875 169.035156 123.820312 169.8125 123.515625 C 170.589844 123.207031 171.328125 122.828125 172.03125 122.378906 C 172.734375 121.925781 173.386719 121.410156 173.988281 120.828125 C 174.589844 120.25 175.128906 119.613281 175.605469 118.929688 C 176.082031 118.242188 176.484375 117.515625 176.820312 116.746094 C 177.152344 115.980469 177.40625 115.1875 177.585938 114.371094 C 177.761719 113.554688 177.859375 112.726562 177.875 111.890625 Z M 177.875 111.429688 " fill-opacity="1" fill-rule="nonzero"/></g></svg>